<svg width="30" height="30" viewBox="0 0 30 30" fill="none" xmlns="http://www.w3.org/2000/svg">
<path d="M16.5 7.5V22.5H14.25V21.75H13.5V21H12.75V20.25H12V19.5H11.25V18.75H10.5V18H6.75V12H10.5V11.25H11.25V10.5H12V9.75H12.75V9H13.5V8.25H14.25V7.5H16.5ZM19.5 17.25V16.5H18.75V15.75H19.5V14.25H18.75V13.5H19.5V12.75H20.25V13.5H21V16.5H20.25V17.25H19.5Z" fill="white"/>
<path d="M24 13.5V16.5H23.25V18H22.5V18.75H21.75V19.5H21V18.75H20.25V18H21V17.25H21.75V16.5H22.5V13.5H21.75V12.75H21V12H20.25V11.25H21V10.5H21.75V11.25H22.5V12H23.25V13.5H24Z" fill="white"/>
</svg>
